<svg width="7" height="16" viewBox="0 0 7 16" fill="none" xmlns="http://www.w3.org/2000/svg">
<g clip-path="url(#clip0_64_4859)">
<path d="M6.83301 8.25L2.23926 12.875C2.15592 12.9583 2.06738 13 1.97363 13C1.87988 13 1.79134 12.9688 1.70801 12.9062L1.08301 12.2812C1.02051 12.1979 0.989258 12.1042 0.989258 12C0.989258 11.8958 1.02051 11.8125 1.08301 11.75L4.80176 8L1.08301 4.25C1.02051 4.1875 0.989258 4.10417 0.989258 4C0.989258 3.89583 1.02051 3.80208 1.08301 3.71875L1.70801 3.09375C1.79134 3.03125 1.87988 3 1.97363 3C2.06738 3 2.15592 3.03125 2.23926 3.09375L6.83301 7.71875C6.89551 7.80208 6.92676 7.89583 6.92676 8C6.92676 8.10417 6.89551 8.19792 6.83301 8.28125V8.25Z" fill="#999999"/>
</g>
<defs>
<clipPath id="clip0_64_4859">
<rect width="6" height="16" fill="white" transform="matrix(1 0 0 -1 0.989258 16)"/>
</clipPath>
</defs>
</svg>
