<svg width="25" height="26" viewBox="0 0 25 26" fill="none" xmlns="http://www.w3.org/2000/svg">
<path d="M16.9616 13.2435L16.6202 13.5121L17.0239 13.6724C19.0892 14.492 20.8924 15.8582 22.2404 17.6245C23.5882 19.3908 24.43 21.4905 24.6756 23.6987C24.7035 23.9607 24.6268 24.2231 24.4622 24.4289C24.3003 24.6312 24.0663 24.7626 23.8096 24.7957L23.6873 24.7957L23.6858 24.7957C23.4388 24.7972 23.1999 24.7071 23.0154 24.5429C22.8308 24.3787 22.7137 24.1519 22.6865 23.9064L22.6865 23.9059C22.4053 21.4028 21.2117 19.0909 19.3338 17.4122C17.4559 15.7334 15.0253 14.8053 12.5064 14.8053C9.98745 14.8053 7.55683 15.7334 5.67891 17.4122C3.80099 19.0909 2.60742 21.4028 2.32624 23.9059L2.32617 23.9065C2.29698 24.1719 2.16354 24.4149 1.95521 24.5819C1.74689 24.749 1.48074 24.8264 1.21532 24.7972C0.949902 24.768 0.706952 24.6346 0.539917 24.4262L0.344871 24.5826L0.539916 24.4262C0.457209 24.3231 0.395629 24.2046 0.358692 24.0777C0.321776 23.9508 0.310197 23.8179 0.324614 23.6866C0.568933 21.4845 1.40625 19.39 2.74731 17.6263C4.08837 15.8627 5.88289 14.496 7.93956 13.6721L8.34129 13.5111L8.00117 13.2435C6.81725 12.312 5.95309 11.0347 5.52892 9.58924C5.10475 8.14377 5.14167 6.60203 5.63453 5.17851C6.12739 3.75499 7.05169 2.52049 8.27883 1.64674C9.50598 0.773 10.9749 0.303467 12.4814 0.303467C13.9878 0.303467 15.4568 0.773 16.6839 1.64674C17.9111 2.52049 18.8354 3.75499 19.3282 5.17851C19.8211 6.60203 19.858 8.14377 19.4338 9.58924C19.0096 11.0347 18.1455 12.312 16.9616 13.2435ZM9.56625 11.9187C10.4291 12.4953 11.4436 12.803 12.4814 12.803C13.873 12.803 15.2076 12.2502 16.1916 11.2662C17.1756 10.2822 17.7284 8.94755 17.7284 7.55594C17.7284 6.51817 17.4207 5.5037 16.8442 4.64082C16.2676 3.77795 15.4481 3.10542 14.4893 2.70828C13.5306 2.31114 12.4755 2.20723 11.4577 2.40969C10.4399 2.61215 9.50495 3.11188 8.77113 3.8457C8.03731 4.57952 7.53758 5.51446 7.33512 6.53229C7.13266 7.55012 7.23657 8.60513 7.63371 9.56391C8.03085 10.5227 8.70338 11.3422 9.56625 11.9187Z" fill="white" stroke="#6347F9" stroke-width="0.5"/>
</svg>
