<svg width="19" height="19" viewBox="0 0 19 19" fill="none" xmlns="http://www.w3.org/2000/svg">
<path d="M15.3288 14.5038C16.1249 13.5459 16.6786 12.4104 16.9431 11.1933C17.2076 9.97612 17.175 8.7132 16.8481 7.51132C16.5213 6.30944 15.9097 5.20396 15.0653 4.2884C14.2208 3.37284 13.1683 2.67414 11.9967 2.2514C10.8251 1.82866 9.56889 1.69432 8.33439 1.85974C7.09989 2.02517 5.92339 2.48548 4.90441 3.20176C3.88544 3.91803 3.05397 4.86919 2.48034 5.97477C1.90671 7.08035 1.6078 8.30782 1.60889 9.55336C1.60931 11.364 2.24737 13.1167 3.41112 14.5038L3.40003 14.5132C3.43884 14.5598 3.48319 14.5997 3.5231 14.6457C3.57299 14.7028 3.62677 14.7566 3.67832 14.812C3.83354 14.9806 3.9932 15.1424 4.16062 15.2943C4.21162 15.3409 4.26428 15.3841 4.31584 15.4285C4.49323 15.5815 4.67562 15.7267 4.86466 15.862C4.88905 15.8786 4.91122 15.9002 4.93562 15.9174V15.9108C6.23399 16.8245 7.78288 17.3148 9.37051 17.3148C10.9581 17.3148 12.507 16.8245 13.8054 15.9108V15.9174C13.8298 15.9002 13.8514 15.8786 13.8764 15.862C14.0648 15.7262 14.2478 15.5815 14.4252 15.4285C14.4767 15.3841 14.5294 15.3403 14.5804 15.2943C14.7478 15.1419 14.9075 14.9806 15.0627 14.812C15.1143 14.7566 15.1675 14.7028 15.2179 14.6457C15.2573 14.5997 15.3022 14.5598 15.341 14.5127L15.3288 14.5038ZM9.36996 5.11846C9.86335 5.11846 10.3457 5.26477 10.7559 5.53888C11.1661 5.81299 11.4859 6.2026 11.6747 6.65844C11.8635 7.11427 11.9129 7.61586 11.8167 8.09977C11.7204 8.58368 11.4828 9.02818 11.1339 9.37706C10.785 9.72594 10.3405 9.96353 9.85664 10.0598C9.37272 10.156 8.87114 10.1066 8.4153 9.91782C7.95947 9.72901 7.56986 9.40927 7.29575 8.99903C7.02164 8.58879 6.87533 8.10648 6.87533 7.61309C6.87533 6.95147 7.13815 6.31695 7.60599 5.84912C8.07382 5.38129 8.70834 5.11846 9.36996 5.11846ZM4.93894 14.5038C4.94856 13.7759 5.24437 13.0811 5.76237 12.5696C6.28037 12.0581 6.97891 11.7712 7.70687 11.7708H11.033C11.761 11.7712 12.4595 12.0581 12.9775 12.5696C13.4955 13.0811 13.7914 13.7759 13.801 14.5038C12.5852 15.5994 11.0066 16.2057 9.36996 16.2057C7.73334 16.2057 6.15475 15.5994 4.93894 14.5038Z" fill="#0B4654" fill-opacity="0.5"/>
</svg>
