<svg width="40" height="41" viewBox="0 0 40 41" fill="none" xmlns="http://www.w3.org/2000/svg">
<rect y="0.140045" width="40" height="40" rx="20" fill="#007456" fill-opacity="0.05"/>
<g clip-path="url(#clip0_58_2901)">
<path d="M25 13.14H29C29.2652 13.14 29.5196 13.2454 29.7071 13.4329C29.8946 13.6205 30 13.8748 30 14.14V30.14C30 30.4052 29.8946 30.6596 29.7071 30.8471C29.5196 31.0346 29.2652 31.14 29 31.14H11C10.7348 31.14 10.4804 31.0346 10.2929 30.8471C10.1054 30.6596 10 30.4052 10 30.14V14.14C10 13.8748 10.1054 13.6205 10.2929 13.4329C10.4804 13.2454 10.7348 13.14 11 13.14H15V11.14H17V13.14H23V11.14H25V13.14ZM23 15.14H17V17.14H15V15.14H12V19.14H28V15.14H25V17.14H23V15.14ZM28 21.14H12V29.14H28V21.14Z" fill="#6347F9"/>
</g>
<defs>
<clipPath id="clip0_58_2901">
<rect width="20" height="20" fill="white" transform="translate(10 11.14)"/>
</clipPath>
</defs>
</svg>
