<svg width="12" height="48" viewBox="0 0 12 48" fill="none" xmlns="http://www.w3.org/2000/svg">
<g clip-path="url(#clip0_58_3298)">
<path d="M10.8091 21.6041L10.3403 21.1353C10.2935 21.0884 10.231 21.065 10.1528 21.065C10.0747 21.065 10.0044 21.0884 9.94189 21.1353L5.69971 25.3775L1.45752 21.1353C1.39502 21.0884 1.32471 21.065 1.24658 21.065C1.16846 21.065 1.10596 21.0884 1.05908 21.1353L0.590332 21.6041C0.543457 21.6666 0.52002 21.7369 0.52002 21.815C0.52002 21.8931 0.543457 21.9556 0.590332 22.0025L5.51221 26.9244C5.55908 26.9713 5.62158 26.9947 5.69971 26.9947C5.77783 26.9947 5.84814 26.9713 5.91064 26.9244L10.8091 22.0025C10.856 21.9556 10.8794 21.8931 10.8794 21.815C10.8794 21.7369 10.856 21.6666 10.8091 21.6041Z" fill="#999999"/>
</g>
<defs>
<clipPath id="clip0_58_3298">
<rect width="10.5" height="47" fill="white" transform="matrix(1 0 0 -1 0.52002 47.19)"/>
</clipPath>
</defs>
</svg>
