<svg width="26" height="26" viewBox="0 0 26 26" fill="none" xmlns="http://www.w3.org/2000/svg">
<g opacity="0.6">
<path d="M11.0419 11.2902C9.93081 11.2902 8.84464 10.9607 7.92077 10.3434C6.99691 9.72606 6.27684 8.84866 5.85163 7.82211C5.42643 6.79557 5.31517 5.66599 5.53194 4.57621C5.74871 3.48644 6.28377 2.48542 7.06945 1.69974C7.85513 0.914052 8.85616 0.378995 9.94593 0.162225C11.0357 -0.0545443 12.1653 0.0567097 13.1918 0.481918C14.2184 0.907127 15.0958 1.62719 15.7131 2.55106C16.3304 3.47492 16.6599 4.5611 16.6599 5.67222C16.6599 7.16219 16.068 8.59114 15.0144 9.64471C13.9609 10.6983 12.5319 11.2902 11.0419 11.2902ZM11.0419 1.72361C10.2483 1.72361 9.47244 1.95896 8.81254 2.39989C8.15263 2.84082 7.6383 3.46754 7.33458 4.20079C7.03086 4.93403 6.95139 5.74088 7.10623 6.51929C7.26106 7.2977 7.64324 8.01271 8.20445 8.57392C8.76565 9.13512 9.48067 9.5173 10.2591 9.67214C11.0375 9.82697 11.8443 9.7475 12.5776 9.44378C13.3108 9.14006 13.9375 8.62573 14.3785 7.96583C14.8194 7.30592 15.0548 6.53009 15.0548 5.73643C15.0548 5.20946 14.951 4.68764 14.7493 4.20079C14.5476 3.71393 14.252 3.27156 13.8794 2.89894C13.5068 2.52631 13.0644 2.23073 12.5776 2.02907C12.0907 1.8274 11.5689 1.72361 11.0419 1.72361ZM15.5122 12.2613C11.1691 11.284 6.62545 11.7547 2.5749 13.6015C2.01783 13.8676 1.54782 14.2865 1.21961 14.8094C0.891388 15.3323 0.718465 15.9376 0.720974 16.555V21.3302C0.720974 21.4356 0.741733 21.54 0.782066 21.6374C0.822398 21.7347 0.881515 21.8232 0.956039 21.8977C1.03056 21.9722 1.11904 22.0314 1.21641 22.0717C1.31378 22.112 1.41814 22.1328 1.52354 22.1328C1.62893 22.1328 1.73329 22.112 1.83066 22.0717C1.92804 22.0314 2.01651 21.9722 2.09104 21.8977C2.16556 21.8232 2.22468 21.7347 2.26501 21.6374C2.30534 21.54 2.3261 21.4356 2.3261 21.3302V16.555C2.31911 16.2425 2.40348 15.9349 2.56886 15.6697C2.73424 15.4045 2.97342 15.1934 3.25707 15.0622C5.69708 13.9356 8.35441 13.3575 11.0419 13.3688C12.5478 13.3669 14.0485 13.5447 15.5122 13.8985V12.2613ZM15.6246 19.8936H20.5523V21.0172H15.6246V19.8936Z" fill="black"/>
<path d="M24.4765 15.1264H20.3273V16.7315H23.674V23.449H12.3017V16.7315H17.3578V17.0686C17.3578 17.2815 17.4424 17.4856 17.5929 17.6361C17.7434 17.7866 17.9475 17.8712 18.1604 17.8712C18.3732 17.8712 18.5774 17.7866 18.7279 17.6361C18.8784 17.4856 18.9629 17.2815 18.9629 17.0686V13.9467C18.9629 13.7338 18.8784 13.5297 18.7279 13.3792C18.5774 13.2286 18.3732 13.1441 18.1604 13.1441C17.9475 13.1441 17.7434 13.2286 17.5929 13.3792C17.4424 13.5297 17.3578 13.7338 17.3578 13.9467V15.1264H11.4991C11.2862 15.1264 11.0821 15.211 10.9316 15.3615C10.7811 15.512 10.6965 15.7161 10.6965 15.929V24.2516C10.6965 24.4644 10.7811 24.6686 10.9316 24.8191C11.0821 24.9696 11.2862 25.0541 11.4991 25.0541H24.4765C24.6894 25.0541 24.8935 24.9696 25.044 24.8191C25.1945 24.6686 25.2791 24.4644 25.2791 24.2516V15.929C25.2791 15.7161 25.1945 15.512 25.044 15.3615C24.8935 15.211 24.6894 15.1264 24.4765 15.1264Z" fill="black"/>
</g>
</svg>
