<svg width="16" height="15" viewBox="0 0 16 15" fill="none" xmlns="http://www.w3.org/2000/svg">
<path d="M8.13026 0.161851C4.05016 0.161851 0.73877 3.47324 0.73877 7.55334C0.73877 11.6334 4.05016 14.9448 8.13026 14.9448H11.826V13.4665H8.13026C4.92235 13.4665 2.21707 10.7613 2.21707 7.55334C2.21707 4.34544 4.92235 1.64015 8.13026 1.64015C11.3382 1.64015 14.0435 4.34544 14.0435 7.55334V8.61033C14.0435 9.19426 13.5187 9.77079 12.9347 9.77079C12.3508 9.77079 11.826 9.19426 11.826 8.61033V7.55334C11.826 5.51329 10.1703 3.8576 8.13026 3.8576C6.09021 3.8576 4.43452 5.51329 4.43452 7.55334C4.43452 9.5934 6.09021 11.2491 8.13026 11.2491C9.15029 11.2491 10.0816 10.8352 10.7469 10.1625C11.2273 10.8204 12.0551 11.2491 12.9347 11.2491C14.3909 11.2491 15.5218 10.0665 15.5218 8.61033V7.55334C15.5218 3.47324 12.2104 0.161851 8.13026 0.161851ZM8.13026 9.77079C6.90328 9.77079 5.91282 8.78033 5.91282 7.55334C5.91282 6.32636 6.90328 5.3359 8.13026 5.3359C9.35725 5.3359 10.3477 6.32636 10.3477 7.55334C10.3477 8.78033 9.35725 9.77079 8.13026 9.77079Z" fill="#0B4654" fill-opacity="0.5"/>
</svg>
