<svg width="220" height="37" viewBox="0 0 220 37" fill="none" xmlns="http://www.w3.org/2000/svg">
<path d="M16.304 8.69932V0.493164H5.75325C-0.380782 0.49316 -1.97667 11.0891 2.75753 14.1701C11.1638 19.6409 16.304 12.8299 16.304 8.69932Z" fill="#FF8718"/>
<path d="M39.0783 25.893V34.0991H49.6291C55.7631 34.0991 57.359 23.5032 52.6248 20.4222C44.2185 14.9514 39.0783 21.7624 39.0783 25.893Z" fill="#FFB905"/>
<rect x="21.1016" y="0.493164" width="13.2862" height="33.6062" rx="6.64308" fill="#6347F9"/>
<path d="M81.7975 9.70664V21.1368C81.7975 22.9063 81.2954 24.2693 80.2911 25.2258C79.3027 26.1823 77.9636 26.6606 76.2738 26.6606C74.5043 26.6606 73.0854 26.1584 72.0174 25.1541C70.9493 24.1497 70.4152 22.723 70.4152 20.8737H74.4803C74.4803 21.5752 74.6238 22.1092 74.9108 22.4759C75.1977 22.8266 75.6122 23.002 76.1542 23.002C76.6484 23.002 77.031 22.8425 77.302 22.5237C77.573 22.2049 77.7085 21.7426 77.7085 21.1368V9.70664H81.7975ZM91.1742 26.6845C89.867 26.6845 88.6873 26.4055 87.6352 25.8475C86.599 25.2896 85.778 24.4925 85.1722 23.4563C84.5823 22.4201 84.2874 21.2085 84.2874 19.8216C84.2874 18.4506 84.5903 17.247 85.1961 16.2108C85.8019 15.1587 86.6308 14.3536 87.683 13.7957C88.7351 13.2377 89.9148 12.9587 91.222 12.9587C92.5292 12.9587 93.7089 13.2377 94.7611 13.7957C95.8132 14.3536 96.6422 15.1587 97.248 16.2108C97.8537 17.247 98.1566 18.4506 98.1566 19.8216C98.1566 21.1926 97.8458 22.4041 97.224 23.4563C96.6183 24.4925 95.7813 25.2896 94.7132 25.8475C93.6611 26.4055 92.4814 26.6845 91.1742 26.6845ZM91.1742 23.1454C91.9553 23.1454 92.6169 22.8585 93.1589 22.2846C93.7169 21.7107 93.9959 20.8897 93.9959 19.8216C93.9959 18.7535 93.7249 17.9325 93.1828 17.3586C92.6568 16.7847 92.0032 16.4978 91.222 16.4978C90.4249 16.4978 89.7634 16.7847 89.2373 17.3586C88.7112 17.9166 88.4482 18.7376 88.4482 19.8216C88.4482 20.8897 88.7032 21.7107 89.2134 22.2846C89.7395 22.8585 90.3931 23.1454 91.1742 23.1454ZM104.415 15.0391C104.798 14.4174 105.348 13.9152 106.065 13.5326C106.782 13.15 107.603 12.9587 108.528 12.9587C109.628 12.9587 110.624 13.2377 111.517 13.7957C112.41 14.3536 113.111 15.1507 113.621 16.1869C114.147 17.2231 114.41 18.4267 114.41 19.7977C114.41 21.1687 114.147 22.3802 113.621 23.4324C113.111 24.4686 112.41 25.2736 111.517 25.8475C110.624 26.4055 109.628 26.6845 108.528 26.6845C107.587 26.6845 106.766 26.5011 106.065 26.1345C105.363 25.7519 104.813 25.2497 104.415 24.628V26.4932H100.326V8.79797H104.415V15.0391ZM110.25 19.7977C110.25 18.7774 109.963 17.9803 109.389 17.4064C108.831 16.8166 108.137 16.5217 107.308 16.5217C106.495 16.5217 105.802 16.8166 105.228 17.4064C104.67 17.9963 104.391 18.8013 104.391 19.8216C104.391 20.8419 104.67 21.6469 105.228 22.2368C105.802 22.8266 106.495 23.1215 107.308 23.1215C108.121 23.1215 108.815 22.8266 109.389 22.2368C109.963 21.631 110.25 20.8179 110.25 19.7977Z" fill="white"/>
<path d="M115.862 18.076C115.862 16.4181 116.221 14.9435 116.938 13.6522C117.656 12.345 118.652 11.3327 119.927 10.6153C121.218 9.882 122.677 9.51534 124.303 9.51534C126.296 9.51534 128.002 10.0414 129.42 11.0936C130.839 12.1457 131.788 13.5805 132.266 15.3978H127.77C127.436 14.6964 126.957 14.1623 126.336 13.7957C125.73 13.429 125.036 13.2457 124.255 13.2457C122.996 13.2457 121.976 13.6841 121.195 14.5609C120.413 15.4377 120.023 16.6094 120.023 18.076C120.023 19.5426 120.413 20.7143 121.195 21.5911C121.976 22.4679 122.996 22.9063 124.255 22.9063C125.036 22.9063 125.73 22.723 126.336 22.3563C126.957 21.9897 127.436 21.4556 127.77 20.7542H132.266C131.788 22.5715 130.839 24.0063 129.42 25.0584C128.002 26.0946 126.296 26.6127 124.303 26.6127C122.677 26.6127 121.218 26.254 119.927 25.5367C118.652 24.8034 117.656 23.7911 116.938 22.4998C116.221 21.2085 115.862 19.7339 115.862 18.076ZM140.844 26.6845C139.537 26.6845 138.357 26.4055 137.305 25.8475C136.269 25.2896 135.448 24.4925 134.842 23.4563C134.252 22.4201 133.957 21.2085 133.957 19.8216C133.957 18.4506 134.26 17.247 134.866 16.2108C135.472 15.1587 136.3 14.3536 137.353 13.7957C138.405 13.2377 139.584 12.9587 140.892 12.9587C142.199 12.9587 143.379 13.2377 144.431 13.7957C145.483 14.3536 146.312 15.1587 146.918 16.2108C147.523 17.247 147.826 18.4506 147.826 19.8216C147.826 21.1926 147.515 22.4041 146.894 23.4563C146.288 24.4925 145.451 25.2896 144.383 25.8475C143.331 26.4055 142.151 26.6845 140.844 26.6845ZM140.844 23.1454C141.625 23.1454 142.287 22.8585 142.829 22.2846C143.387 21.7107 143.666 20.8897 143.666 19.8216C143.666 18.7535 143.395 17.9325 142.852 17.3586C142.326 16.7847 141.673 16.4978 140.892 16.4978C140.095 16.4978 139.433 16.7847 138.907 17.3586C138.381 17.9166 138.118 18.7376 138.118 19.8216C138.118 20.8897 138.373 21.7107 138.883 22.2846C139.409 22.8585 140.063 23.1454 140.844 23.1454ZM158.126 13.0066C159.688 13.0066 160.932 13.5167 161.856 14.537C162.797 15.5413 163.267 16.9282 163.267 18.6977V26.4932H159.202V19.2477C159.202 18.355 158.971 17.6615 158.508 17.1673C158.046 16.6731 157.424 16.426 156.643 16.426C155.862 16.426 155.24 16.6731 154.778 17.1673C154.316 17.6615 154.085 18.355 154.085 19.2477V26.4932H149.996V13.15H154.085V14.9196C154.499 14.3297 155.057 13.8674 155.758 13.5326C156.46 13.1819 157.249 13.0066 158.126 13.0066ZM174.239 13.0066C175.801 13.0066 177.044 13.5167 177.969 14.537C178.91 15.5413 179.38 16.9282 179.38 18.6977V26.4932H175.315V19.2477C175.315 18.355 175.084 17.6615 174.621 17.1673C174.159 16.6731 173.537 16.426 172.756 16.426C171.975 16.426 171.353 16.6731 170.891 17.1673C170.429 17.6615 170.197 18.355 170.197 19.2477V26.4932H166.108V13.15H170.197V14.9196C170.612 14.3297 171.17 13.8674 171.871 13.5326C172.573 13.1819 173.362 13.0066 174.239 13.0066ZM194.799 19.6064C194.799 19.989 194.775 20.3875 194.727 20.802H185.473C185.537 21.631 185.8 22.2686 186.262 22.715C186.741 23.1454 187.323 23.3606 188.008 23.3606C189.028 23.3606 189.738 22.9302 190.136 22.0694H194.488C194.265 22.9462 193.859 23.7353 193.269 24.4367C192.695 25.1381 191.97 25.6881 191.093 26.0867C190.216 26.4852 189.236 26.6845 188.152 26.6845C186.844 26.6845 185.681 26.4055 184.66 25.8475C183.64 25.2896 182.843 24.4925 182.269 23.4563C181.695 22.4201 181.408 21.2085 181.408 19.8216C181.408 18.4347 181.687 17.2231 182.245 16.1869C182.819 15.1507 183.616 14.3536 184.636 13.7957C185.657 13.2377 186.828 12.9587 188.152 12.9587C189.443 12.9587 190.591 13.2297 191.595 13.7718C192.599 14.3138 193.38 15.0869 193.938 16.0913C194.512 17.0956 194.799 18.2673 194.799 19.6064ZM190.615 18.5303C190.615 17.8289 190.375 17.2709 189.897 16.8565C189.419 16.442 188.821 16.2347 188.104 16.2347C187.418 16.2347 186.836 16.434 186.358 16.8325C185.896 17.2311 185.609 17.797 185.497 18.5303H190.615ZM196.143 19.8216C196.143 18.4347 196.422 17.2231 196.98 16.1869C197.554 15.1507 198.343 14.3536 199.348 13.7957C200.368 13.2377 201.532 12.9587 202.839 12.9587C204.513 12.9587 205.908 13.3971 207.024 14.2739C208.155 15.1507 208.897 16.3862 209.247 17.9803H204.895C204.529 16.9601 203.819 16.4499 202.767 16.4499C202.018 16.4499 201.42 16.7449 200.974 17.3347C200.527 17.9086 200.304 18.7376 200.304 19.8216C200.304 20.9056 200.527 21.7426 200.974 22.3324C201.42 22.9063 202.018 23.1932 202.767 23.1932C203.819 23.1932 204.529 22.6831 204.895 21.6629H209.247C208.897 23.2251 208.155 24.4526 207.024 25.3454C205.892 26.2381 204.497 26.6845 202.839 26.6845C201.532 26.6845 200.368 26.4055 199.348 25.8475C198.343 25.2896 197.554 24.4925 196.98 23.4563C196.422 22.4201 196.143 21.2085 196.143 19.8216ZM218.871 23.0259V26.4932H216.791C215.308 26.4932 214.153 26.1345 213.324 25.4171C212.495 24.6838 212.08 23.4961 212.08 21.8542V16.5456H210.454V13.15H212.08V9.89794H216.169V13.15H218.847V16.5456H216.169V21.902C216.169 22.3005 216.265 22.5875 216.456 22.7628C216.648 22.9382 216.966 23.0259 217.413 23.0259H218.871Z" fill="#6347F9"/>
</svg>
