<svg width="58" height="59" viewBox="0 0 58 59" fill="none" xmlns="http://www.w3.org/2000/svg">
<rect y="0.469055" width="57.8716" height="57.8716" rx="28.9358" fill="#E7E7F1"/>
<path d="M28.9358 14.0394C30.9734 14.0394 32.9275 14.8489 34.3683 16.2897C35.8091 17.7304 36.6185 19.6846 36.6185 21.7222C36.6185 23.7598 35.8091 25.7139 34.3683 27.1547C32.9275 28.5955 30.9734 29.4049 28.9358 29.4049C26.8982 29.4049 24.9441 28.5955 23.5033 27.1547C22.0625 25.7139 21.2531 23.7598 21.2531 21.7222C21.2531 19.6846 22.0625 17.7304 23.5033 16.2897C24.9441 14.8489 26.8982 14.0394 28.9358 14.0394ZM28.9358 33.2463C37.4252 33.2463 44.3013 36.6843 44.3013 40.929V44.7704H13.5703V40.929C13.5703 36.6843 20.4464 33.2463 28.9358 33.2463Z" fill="white"/>
</svg>
