<svg width="185" height="31" viewBox="0 0 185 31" fill="none" xmlns="http://www.w3.org/2000/svg">
<path d="M13.6364 7.36351V0.5H4.81193C-0.318481 0.499997 -1.65325 9.3623 2.30636 11.9392C9.33728 16.5149 13.6364 10.8183 13.6364 7.36351Z" fill="#FF8718"/>
<path d="M32.6846 21.7442V28.6077H41.5091C46.6395 28.6077 47.9743 19.7454 44.0147 17.1685C36.9838 12.5929 32.6846 18.2894 32.6846 21.7442Z" fill="#FFB905"/>
<rect x="17.6489" y="0.5" width="11.1124" height="28.1077" rx="5.55618" fill="#6347F9"/>
<path d="M68.6853 8.46V18.02C68.6853 19.5 68.2653 20.64 67.4253 21.44C66.5986 22.24 65.4786 22.64 64.0653 22.64C62.5853 22.64 61.3986 22.22 60.5053 21.38C59.6119 20.54 59.1653 19.3467 59.1653 17.8H62.5653C62.5653 18.3867 62.6853 18.8333 62.9253 19.14C63.1653 19.4333 63.5119 19.58 63.9653 19.58C64.3786 19.58 64.6986 19.4467 64.9253 19.18C65.1519 18.9133 65.2653 18.5267 65.2653 18.02V8.46H68.6853ZM76.5278 22.66C75.4344 22.66 74.4478 22.4267 73.5678 21.96C72.7011 21.4933 72.0144 20.8267 71.5078 19.96C71.0144 19.0933 70.7678 18.08 70.7678 16.92C70.7678 15.7733 71.0211 14.7667 71.5278 13.9C72.0344 13.02 72.7278 12.3467 73.6078 11.88C74.4878 11.4133 75.4744 11.18 76.5678 11.18C77.6611 11.18 78.6478 11.4133 79.5278 11.88C80.4078 12.3467 81.1011 13.02 81.6078 13.9C82.1144 14.7667 82.3678 15.7733 82.3678 16.92C82.3678 18.0667 82.1078 19.08 81.5878 19.96C81.0811 20.8267 80.3811 21.4933 79.4878 21.96C78.6078 22.4267 77.6211 22.66 76.5278 22.66ZM76.5278 19.7C77.1811 19.7 77.7344 19.46 78.1878 18.98C78.6544 18.5 78.8878 17.8133 78.8878 16.92C78.8878 16.0267 78.6611 15.34 78.2078 14.86C77.7678 14.38 77.2211 14.14 76.5678 14.14C75.9011 14.14 75.3478 14.38 74.9078 14.86C74.4678 15.3267 74.2478 16.0133 74.2478 16.92C74.2478 17.8133 74.4611 18.5 74.8878 18.98C75.3278 19.46 75.8744 19.7 76.5278 19.7ZM87.6021 12.92C87.9221 12.4 88.3821 11.98 88.9821 11.66C89.5821 11.34 90.2688 11.18 91.0421 11.18C91.9621 11.18 92.7955 11.4133 93.5421 11.88C94.2888 12.3467 94.8755 13.0133 95.3021 13.88C95.7421 14.7467 95.9621 15.7533 95.9621 16.9C95.9621 18.0467 95.7421 19.06 95.3021 19.94C94.8755 20.8067 94.2888 21.48 93.5421 21.96C92.7955 22.4267 91.9621 22.66 91.0421 22.66C90.2555 22.66 89.5688 22.5067 88.9821 22.2C88.3955 21.88 87.9355 21.46 87.6021 20.94V22.5H84.1821V7.7H87.6021V12.92ZM92.4821 16.9C92.4821 16.0467 92.2421 15.38 91.7621 14.9C91.2955 14.4067 90.7155 14.16 90.0221 14.16C89.3421 14.16 88.7621 14.4067 88.2821 14.9C87.8155 15.3933 87.5821 16.0667 87.5821 16.92C87.5821 17.7733 87.8155 18.4467 88.2821 18.94C88.7621 19.4333 89.3421 19.68 90.0221 19.68C90.7021 19.68 91.2821 19.4333 91.7621 18.94C92.2421 18.4333 92.4821 17.7533 92.4821 16.9Z" fill="#1B1A1F"/>
<path d="M97.1764 15.46C97.1764 14.0733 97.4764 12.84 98.0764 11.76C98.6764 10.6667 99.5097 9.82 100.576 9.22C101.656 8.60667 102.876 8.3 104.236 8.3C105.903 8.3 107.33 8.74 108.516 9.62C109.703 10.5 110.496 11.7 110.896 13.22H107.136C106.856 12.6333 106.456 12.1867 105.936 11.88C105.43 11.5733 104.85 11.42 104.196 11.42C103.143 11.42 102.29 11.7867 101.636 12.52C100.983 13.2533 100.656 14.2333 100.656 15.46C100.656 16.6867 100.983 17.6667 101.636 18.4C102.29 19.1333 103.143 19.5 104.196 19.5C104.85 19.5 105.43 19.3467 105.936 19.04C106.456 18.7333 106.856 18.2867 107.136 17.7H110.896C110.496 19.22 109.703 20.42 108.516 21.3C107.33 22.1667 105.903 22.6 104.236 22.6C102.876 22.6 101.656 22.3 100.576 21.7C99.5097 21.0867 98.6764 20.24 98.0764 19.16C97.4764 18.08 97.1764 16.8467 97.1764 15.46ZM118.071 22.66C116.977 22.66 115.991 22.4267 115.111 21.96C114.244 21.4933 113.557 20.8267 113.051 19.96C112.557 19.0933 112.311 18.08 112.311 16.92C112.311 15.7733 112.564 14.7667 113.071 13.9C113.577 13.02 114.271 12.3467 115.151 11.88C116.031 11.4133 117.017 11.18 118.111 11.18C119.204 11.18 120.191 11.4133 121.071 11.88C121.951 12.3467 122.644 13.02 123.151 13.9C123.657 14.7667 123.911 15.7733 123.911 16.92C123.911 18.0667 123.651 19.08 123.131 19.96C122.624 20.8267 121.924 21.4933 121.031 21.96C120.151 22.4267 119.164 22.66 118.071 22.66ZM118.071 19.7C118.724 19.7 119.277 19.46 119.731 18.98C120.197 18.5 120.431 17.8133 120.431 16.92C120.431 16.0267 120.204 15.34 119.751 14.86C119.311 14.38 118.764 14.14 118.111 14.14C117.444 14.14 116.891 14.38 116.451 14.86C116.011 15.3267 115.791 16.0133 115.791 16.92C115.791 17.8133 116.004 18.5 116.431 18.98C116.871 19.46 117.417 19.7 118.071 19.7ZM132.525 11.22C133.832 11.22 134.872 11.6467 135.645 12.5C136.432 13.34 136.825 14.5 136.825 15.98V22.5H133.425V16.44C133.425 15.6933 133.232 15.1133 132.845 14.7C132.458 14.2867 131.938 14.08 131.285 14.08C130.632 14.08 130.112 14.2867 129.725 14.7C129.338 15.1133 129.145 15.6933 129.145 16.44V22.5H125.725V11.34H129.145V12.82C129.492 12.3267 129.958 11.94 130.545 11.66C131.132 11.3667 131.792 11.22 132.525 11.22ZM146.002 11.22C147.308 11.22 148.348 11.6467 149.122 12.5C149.908 13.34 150.302 14.5 150.302 15.98V22.5H146.902V16.44C146.902 15.6933 146.708 15.1133 146.322 14.7C145.935 14.2867 145.415 14.08 144.762 14.08C144.108 14.08 143.588 14.2867 143.202 14.7C142.815 15.1133 142.622 15.6933 142.622 16.44V22.5H139.202V11.34H142.622V12.82C142.968 12.3267 143.435 11.94 144.022 11.66C144.608 11.3667 145.268 11.22 146.002 11.22ZM163.198 16.74C163.198 17.06 163.178 17.3933 163.138 17.74H155.398C155.452 18.4333 155.672 18.9667 156.058 19.34C156.458 19.7 156.945 19.88 157.518 19.88C158.372 19.88 158.965 19.52 159.298 18.8H162.938C162.752 19.5333 162.412 20.1933 161.918 20.78C161.438 21.3667 160.832 21.8267 160.098 22.16C159.365 22.4933 158.545 22.66 157.638 22.66C156.545 22.66 155.572 22.4267 154.718 21.96C153.865 21.4933 153.198 20.8267 152.718 19.96C152.238 19.0933 151.998 18.08 151.998 16.92C151.998 15.76 152.232 14.7467 152.698 13.88C153.178 13.0133 153.845 12.3467 154.698 11.88C155.552 11.4133 156.532 11.18 157.638 11.18C158.718 11.18 159.678 11.4067 160.518 11.86C161.358 12.3133 162.012 12.96 162.478 13.8C162.958 14.64 163.198 15.62 163.198 16.74ZM159.698 15.84C159.698 15.2533 159.498 14.7867 159.098 14.44C158.698 14.0933 158.198 13.92 157.598 13.92C157.025 13.92 156.538 14.0867 156.138 14.42C155.752 14.7533 155.512 15.2267 155.418 15.84H159.698ZM164.322 16.92C164.322 15.76 164.556 14.7467 165.022 13.88C165.502 13.0133 166.162 12.3467 167.002 11.88C167.856 11.4133 168.829 11.18 169.922 11.18C171.322 11.18 172.489 11.5467 173.422 12.28C174.369 13.0133 174.989 14.0467 175.282 15.38H171.642C171.336 14.5267 170.742 14.1 169.862 14.1C169.236 14.1 168.736 14.3467 168.362 14.84C167.989 15.32 167.802 16.0133 167.802 16.92C167.802 17.8267 167.989 18.5267 168.362 19.02C168.736 19.5 169.236 19.74 169.862 19.74C170.742 19.74 171.336 19.3133 171.642 18.46H175.282C174.989 19.7667 174.369 20.7933 173.422 21.54C172.476 22.2867 171.309 22.66 169.922 22.66C168.829 22.66 167.856 22.4267 167.002 21.96C166.162 21.4933 165.502 20.8267 165.022 19.96C164.556 19.0933 164.322 18.08 164.322 16.92ZM183.332 19.6V22.5H181.592C180.352 22.5 179.385 22.2 178.692 21.6C177.998 20.9867 177.652 19.9933 177.652 18.62V14.18H176.292V11.34H177.652V8.62H181.072V11.34H183.312V14.18H181.072V18.66C181.072 18.9933 181.152 19.2333 181.312 19.38C181.472 19.5267 181.738 19.6 182.112 19.6H183.332Z" fill="#6347F9"/>
</svg>
