<svg width="19" height="19" viewBox="0 0 19 19" fill="none" xmlns="http://www.w3.org/2000/svg">
<path d="M14.1517 6.72694H15.63C15.826 6.72694 16.014 6.80481 16.1526 6.94343C16.2913 7.08205 16.3691 7.27005 16.3691 7.46609V16.3359C16.3691 16.5319 16.2913 16.7199 16.1526 16.8585C16.014 16.9972 15.826 17.075 15.63 17.075H3.8036C3.60757 17.075 3.41956 16.9972 3.28094 16.8585C3.14233 16.7199 3.06445 16.5319 3.06445 16.3359V7.46609C3.06445 7.27005 3.14233 7.08205 3.28094 6.94343C3.41956 6.80481 3.60757 6.72694 3.8036 6.72694H5.2819V5.98779C5.2819 4.81158 5.74915 3.68355 6.58085 2.85185C7.41256 2.02014 8.54059 1.55289 9.7168 1.55289C10.893 1.55289 12.021 2.02014 12.8527 2.85185C13.6844 3.68355 14.1517 4.81158 14.1517 5.98779V6.72694ZM12.6734 6.72694V5.98779C12.6734 5.20365 12.3619 4.45163 11.8074 3.89716C11.253 3.34269 10.5009 3.03119 9.7168 3.03119C8.93266 3.03119 8.18064 3.34269 7.62617 3.89716C7.0717 4.45163 6.7602 5.20365 6.7602 5.98779V6.72694H12.6734ZM8.97765 11.1618V12.6401H10.4559V11.1618H8.97765ZM6.02105 11.1618V12.6401H7.49935V11.1618H6.02105ZM11.9342 11.1618V12.6401H13.4125V11.1618H11.9342Z" fill="#0B4654" fill-opacity="0.5"/>
</svg>
