<svg width="7" height="16" viewBox="0 0 7 16" fill="none" xmlns="http://www.w3.org/2000/svg">
<g clip-path="url(#clip0_64_4993)">
<path d="M5.92041 8.04443L1.61377 12.3804C1.53564 12.4585 1.45264 12.4976 1.36475 12.4976C1.27686 12.4976 1.19385 12.4683 1.11572 12.4097L0.529785 11.8237C0.471191 11.7456 0.441895 11.6577 0.441895 11.5601C0.441895 11.4624 0.471191 11.3843 0.529785 11.3257L4.01611 7.81006L0.529785 4.29443C0.471191 4.23584 0.441895 4.15771 0.441895 4.06006C0.441895 3.9624 0.471191 3.87451 0.529785 3.79639L1.11572 3.21045C1.19385 3.15186 1.27686 3.12256 1.36475 3.12256C1.45264 3.12256 1.53564 3.15186 1.61377 3.21045L5.92041 7.54639C5.979 7.62451 6.0083 7.7124 6.0083 7.81006C6.0083 7.90771 5.979 7.99561 5.92041 8.07373V8.04443Z" fill="#555555"/>
</g>
<defs>
<clipPath id="clip0_64_4993">
<rect width="5.63" height="15" fill="white" transform="matrix(1 0 0 -1 0.439453 15.3101)"/>
</clipPath>
</defs>
</svg>
