<svg width="17" height="17" viewBox="0 0 17 17" fill="none" xmlns="http://www.w3.org/2000/svg">
<rect width="17" height="17" fill="#353535"/>
<g id="Job POST " clip-path="url(#clip0_0_1)">
<rect width="1440" height="3997" transform="translate(-1172 -1225)" fill="white"/>
<g id="div.jobs-company-sidebar">
<rect x="-221.5" y="-820.98" width="339" height="937" rx="15.5" fill="white"/>
<g id="div#tab-sidebar-overview">
<g id="Link">
<g id="Icon" clip-path="url(#clip1_0_1)">
<path id="Vector" d="M14.5974 0.897595L1.59741 8.3976C1.24325 8.60593 1.01408 8.89239 0.909912 9.25697C0.805745 9.62155 0.831787 9.98093 0.988037 10.3351C1.14429 10.6893 1.40991 10.9393 1.78491 11.0851L5.34741 12.5851V15.2101C5.34741 15.6684 5.51408 16.0382 5.84741 16.3195C6.18075 16.6007 6.56095 16.7257 6.98804 16.6945C7.41512 16.6632 7.7745 16.4705 8.06616 16.1163L9.40991 14.2413L12.9099 15.7101C13.0974 15.7726 13.2953 15.8038 13.5037 15.8038C13.7537 15.8038 13.9932 15.7413 14.2224 15.6163C14.6391 15.3872 14.8891 15.033 14.9724 14.5538L16.8162 2.42885C16.8787 2.03301 16.8005 1.67885 16.5818 1.36635C16.363 1.05385 16.0662 0.85072 15.6912 0.75697C15.3162 0.663219 14.9516 0.710095 14.5974 0.897595ZM6.84741 15.2101V13.1788L8.00366 13.6476L6.84741 15.2101ZM13.5037 14.3038L8.69116 12.3351L13.0662 5.99135C13.1703 5.84551 13.1912 5.69447 13.1287 5.53822C13.0662 5.38197 12.9516 5.2778 12.7849 5.22572C12.6182 5.17364 12.462 5.2101 12.3162 5.3351L5.72241 11.1163L2.34741 9.7101L15.3474 2.2101L13.5037 14.3038Z" fill="#6347F9"/>
</g>
<rect x="-207.5" y="-13.7899" width="311" height="45" rx="22.5" stroke="#6347F9"/>
</g>
</g>
<rect x="-221.5" y="-820.98" width="339" height="937" rx="15.5" stroke="#EEEEEE"/>
</g>
</g>
<defs>
<clipPath id="clip0_0_1">
<rect width="1440" height="3997" fill="white" transform="translate(-1172 -1225)"/>
</clipPath>
<clipPath id="clip1_0_1">
<rect width="16" height="16" fill="white" transform="matrix(1 0 0 -1 0.909912 16.7101)"/>
</clipPath>
</defs>
</svg>
