<svg width="19" height="17" viewBox="0 0 19 17" fill="none" xmlns="http://www.w3.org/2000/svg">
<g clip-path="url(#clip0_58_2881)">
<path d="M18.5513 7.39005C17.6554 5.86921 16.4367 4.66088 14.895 3.76505C13.3325 2.84838 11.6242 2.39005 9.77002 2.39005C7.91585 2.39005 6.20752 2.84838 4.64502 3.76505C3.10335 4.66088 1.8846 5.86921 0.98877 7.39005C0.842936 7.61921 0.77002 7.86921 0.77002 8.14005C0.77002 8.41088 0.842936 8.66088 0.98877 8.89005C1.8846 10.4109 3.10335 11.6192 4.64502 12.515C6.20752 13.4317 7.91585 13.89 9.77002 13.89C11.6242 13.89 13.3325 13.4317 14.895 12.515C16.4367 11.6192 17.6554 10.4109 18.5513 8.89005C18.6971 8.66088 18.77 8.41088 18.77 8.14005C18.77 7.86921 18.6971 7.61921 18.5513 7.39005ZM9.77002 12.39C8.18669 12.39 6.73356 12.0046 5.41064 11.2338C4.08773 10.463 3.04085 9.43171 2.27002 8.14005C2.97835 6.95255 3.92627 5.9838 5.11377 5.2338C6.30127 4.4838 7.60335 4.0463 9.02002 3.9213C9.35335 4.25463 9.52002 4.66088 9.52002 5.14005C9.52002 5.61921 9.34814 6.03067 9.00439 6.37442C8.66064 6.71817 8.24919 6.89005 7.77002 6.89005C7.29085 6.89005 6.87939 6.71817 6.53564 6.37442C6.19189 6.03067 6.02002 5.61921 6.02002 5.14005C5.68669 5.76505 5.52002 6.43171 5.52002 7.14005C5.52002 7.91088 5.71273 8.61921 6.09814 9.26505C6.48356 9.91088 6.99919 10.4265 7.64502 10.8119C8.29085 11.1973 8.99919 11.39 9.77002 11.39C10.5409 11.39 11.2492 11.1973 11.895 10.8119C12.5409 10.4265 13.0565 9.91088 13.4419 9.26505C13.8273 8.61921 14.02 7.91088 14.02 7.14005C14.02 6.18171 13.7284 5.31713 13.145 4.5463C14.02 4.9213 14.8065 5.41609 15.5044 6.03067C16.2023 6.64525 16.7909 7.34838 17.27 8.14005C16.4992 9.43171 15.4523 10.463 14.1294 11.2338C12.8065 12.0046 11.3534 12.39 9.77002 12.39Z" fill="#555555"/>
</g>
<defs>
<clipPath id="clip0_58_2881">
<rect width="18" height="16" fill="white" transform="matrix(1 0 0 -1 0.77002 16.14)"/>
</clipPath>
</defs>
</svg>
