<svg width="16" height="15" viewBox="0 0 16 15" fill="none" xmlns="http://www.w3.org/2000/svg">
<g clip-path="url(#clip0_58_3220)">
<path d="M15.875 1.0929V5.57727C15.875 5.68665 15.834 5.77779 15.752 5.85071C15.6699 5.92362 15.5742 5.96008 15.4648 5.96008H14.5625C14.4531 5.96008 14.362 5.91907 14.2891 5.83704C14.2161 5.755 14.1797 5.6593 14.1797 5.54993L14.2344 3.55383L14.1797 3.49915L6.57812 11.1007C6.50521 11.1736 6.42318 11.2101 6.33203 11.2101C6.24089 11.2101 6.16797 11.1736 6.11328 11.1007L5.48438 10.4718C5.41146 10.4171 5.375 10.3442 5.375 10.2531C5.375 10.1619 5.41146 10.0799 5.48438 10.007L13.0859 2.4054L13.0312 2.35071L11.0352 2.4054C10.9258 2.4054 10.8301 2.36894 10.748 2.29602C10.666 2.2231 10.625 2.13196 10.625 2.02258V1.12024C10.625 1.01086 10.6615 0.915161 10.7344 0.83313C10.8073 0.751099 10.8984 0.710083 11.0078 0.710083H15.4922C15.6016 0.710083 15.6927 0.746541 15.7656 0.819458C15.8385 0.892375 15.875 0.983521 15.875 1.0929ZM11.8281 7.10852L11.1719 7.76477C11.099 7.81946 11.0625 7.89237 11.0625 7.98352V13.2335C11.0625 13.27 11.0443 13.3064 11.0078 13.3429C10.9714 13.3794 10.9349 13.3976 10.8984 13.3976H1.60156C1.5651 13.3976 1.52865 13.3794 1.49219 13.3429C1.45573 13.3064 1.4375 13.27 1.4375 13.2335V3.93665C1.4375 3.90019 1.45573 3.86373 1.49219 3.82727C1.52865 3.79081 1.5651 3.77258 1.60156 3.77258H9.85938C10.0052 3.77258 10.1055 3.70422 10.1602 3.5675C10.2148 3.43079 10.1875 3.31685 10.0781 3.22571L9.42188 2.56946C9.36719 2.49654 9.29427 2.46008 9.20312 2.46008H1.4375C1.07292 2.46008 0.763021 2.58769 0.507812 2.8429C0.252604 3.0981 0.125 3.408 0.125 3.77258V13.3976C0.125 13.7622 0.252604 14.0721 0.507812 14.3273C0.763021 14.5825 1.07292 14.7101 1.4375 14.7101H11.0625C11.4271 14.7101 11.737 14.5825 11.9922 14.3273C12.2474 14.0721 12.375 13.7622 12.375 13.3976V7.32727C12.375 7.18144 12.3066 7.08118 12.1699 7.02649C12.0332 6.9718 11.9193 6.99915 11.8281 7.10852Z" fill="#111111"/>
</g>
<defs>
<clipPath id="clip0_58_3220">
<rect width="15.75" height="14" fill="white" transform="matrix(1 0 0 -1 0.125 14.7101)"/>
</clipPath>
</defs>
</svg>
